<svg width="12" height="20" viewBox="0 0 12 20" fill="none" xmlns="http://www.w3.org/2000/svg">
<path d="M11.2493 0.00416133L8.65579 0C5.74202 0 3.85902 1.9319 3.85902 4.92203V7.19141H1.25132C1.02598 7.19141 0.843506 7.37409 0.843506 7.59943V10.8875C0.843506 11.1128 1.02619 11.2953 1.25132 11.2953H3.85902V19.5922C3.85902 19.8175 4.04149 20 4.26683 20H7.66914C7.89447 20 8.07695 19.8173 8.07695 19.5922V11.2953H11.126C11.3513 11.2953 11.5338 11.1128 11.5338 10.8875L11.535 7.59943C11.535 7.49123 11.4919 7.38762 11.4156 7.31105C11.3392 7.23448 11.2352 7.19141 11.127 7.19141H8.07695V5.26763C8.07695 4.34298 8.29729 3.87358 9.50179 3.87358L11.2489 3.87295C11.4741 3.87295 11.6565 3.69027 11.6565 3.46514V0.411972C11.6565 0.187052 11.4743 0.00457747 11.2493 0.00416133Z" fill="currentColor"/>
</svg>
