<svg width="25" height="16" viewBox="0 0 25 16" fill="none" xmlns="http://www.w3.org/2000/svg">
<path d="M7.78566 6.34535C11.8358 6.34535 14.2583 6.34535 15.0532 6.34535C15.3182 7.74587 15.2614 9.10854 14.8829 10.4334C14.5044 11.7203 13.842 12.7991 12.8957 13.6697C12.0251 14.4646 10.9652 15.0134 9.71611 15.3162C8.35344 15.6191 7.02862 15.6001 5.74166 15.2595C4.71966 14.9945 3.79229 14.5214 2.95954 13.84C2.0511 13.1208 1.35084 12.2692 0.858765 11.285C0.0260232 9.69524 -0.201088 8.01083 0.177431 6.2318C0.290986 5.55046 0.518098 4.90698 0.858765 4.30135C1.76721 2.40876 3.22451 1.12179 5.23066 0.440458C6.97184 -0.165172 8.71303 -0.146246 10.4542 0.497236C11.3627 0.837903 12.1954 1.3489 12.9524 2.03024C12.8767 2.14379 12.7443 2.2952 12.555 2.48446C12.3657 2.63587 12.2522 2.74942 12.2143 2.82513C12.0629 2.93868 11.8169 3.16579 11.4762 3.50646C11.1734 3.80928 10.9463 4.05531 10.7949 4.24457C10.3028 3.7525 9.73503 3.41183 9.09155 3.22257C8.33451 2.99546 7.57747 2.97653 6.82044 3.16579C5.91199 3.35505 5.13603 3.77142 4.49255 4.41491C4.00047 4.94483 3.62195 5.56939 3.35699 6.28857C3.01632 7.27272 3.01632 8.2758 3.35699 9.2978C3.69766 10.2819 4.30329 11.0768 5.17388 11.6825C5.70381 12.061 6.27158 12.307 6.87721 12.4206C7.44499 12.5341 8.06955 12.5341 8.75088 12.4206C9.39436 12.307 9.96214 12.0799 10.4542 11.7392C11.3248 11.1715 11.8358 10.3766 11.9872 9.35458C10.5867 9.35458 9.18618 9.35458 7.78566 9.35458C7.78566 9.12747 7.78566 8.63539 7.78566 7.87835C7.78566 7.08346 7.78566 6.57246 7.78566 6.34535ZM24.2512 6.51569V8.44613H21.5827V11.0579H19.6522V8.44613H16.9837V6.51569H19.6522V3.84713H21.5827V6.51569H24.2512Z" fill="white"/>
</svg>
