<svg width="20" height="18" viewBox="0 0 20 18" fill="none" xmlns="http://www.w3.org/2000/svg">
<path d="M6.207 8.75697C6.29997 8.84984 6.37373 8.96013 6.42406 9.08153C6.47438 9.20293 6.50028 9.33306 6.50028 9.46447C6.50028 9.59589 6.47438 9.72602 6.42406 9.84741C6.37373 9.96881 6.29997 10.0791 6.207 10.172L4.38 12H14C14.2652 12 14.5196 12.1053 14.7071 12.2929C14.8946 12.4804 15 12.7348 15 13C15 13.2652 14.8946 13.5195 14.7071 13.7071C14.5196 13.8946 14.2652 14 14 14H4.38L6.208 15.828C6.30091 15.9208 6.37462 16.0311 6.42493 16.1524C6.47524 16.2737 6.50115 16.4038 6.5012 16.5351C6.50125 16.6665 6.47542 16.7965 6.4252 16.9179C6.37498 17.0393 6.30134 17.1496 6.2085 17.2425C6.11565 17.3354 6.00542 17.4091 5.88408 17.4594C5.76275 17.5097 5.6327 17.5356 5.50135 17.5357C5.37 17.5357 5.23993 17.5099 5.11856 17.4597C4.99719 17.4095 4.88691 17.3358 4.794 17.243L1.258 13.707C1.07053 13.5194 0.96521 13.2651 0.96521 13C0.96521 12.7348 1.07053 12.4805 1.258 12.293L4.794 8.75697C4.98152 8.5695 5.23583 8.46419 5.501 8.46419C5.76616 8.46419 6.02047 8.5695 6.208 8.75697H6.207ZM13.793 0.756973C13.9652 0.584796 14.1943 0.481365 14.4373 0.466084C14.6803 0.450802 14.9206 0.524721 15.113 0.673973L15.207 0.756973L18.743 4.29297C18.9152 4.46517 19.0186 4.69427 19.0339 4.93729C19.0492 5.18032 18.9752 5.42057 18.826 5.61297L18.743 5.70697L15.207 9.24197C15.027 9.42132 14.7856 9.52545 14.5316 9.5332C14.2777 9.54095 14.0303 9.45176 13.8397 9.28372C13.6492 9.11569 13.5297 8.88142 13.5056 8.6285C13.4815 8.37558 13.5546 8.12296 13.71 7.92197L13.793 7.82797L15.62 5.99997H6C5.74512 5.99969 5.49996 5.90209 5.31463 5.72712C5.12929 5.55216 5.01776 5.31302 5.00282 5.05858C4.98789 4.80414 5.07067 4.55359 5.23426 4.35814C5.39785 4.16269 5.6299 4.03708 5.883 4.00697L6 3.99997H15.621L13.793 2.16997C13.6055 1.98245 13.5002 1.72814 13.5002 1.46297C13.5002 1.19781 13.6055 0.9435 13.793 0.755973V0.756973Z" fill="currentColor"/>
</svg>
