<svg width="21" height="18" viewBox="0 0 21 18" fill="none" xmlns="http://www.w3.org/2000/svg">
<path d="M20.1052 2.52259C19.7821 2.66593 19.4498 2.7869 19.1103 2.88511C19.5123 2.43055 19.8187 1.89569 20.0058 1.3104C20.0477 1.17921 20.0043 1.03561 19.8964 0.949807C19.7887 0.863938 19.6391 0.853652 19.5205 0.923927C18.7995 1.35155 18.0216 1.65886 17.206 1.83856C16.3844 1.03574 15.2685 0.578857 14.1149 0.578857C11.6799 0.578857 9.69877 2.55989 9.69877 4.99488C9.69877 5.18666 9.71091 5.37738 9.73494 5.56544C6.71326 5.30013 3.90407 3.81494 1.975 1.44863C1.90625 1.36429 1.80034 1.31883 1.69191 1.32752C1.58342 1.33602 1.48593 1.3972 1.43112 1.49123C1.03987 2.16259 0.833024 2.93044 0.833024 3.71169C0.833024 4.77576 1.21293 5.78535 1.88402 6.57423C1.67997 6.50356 1.48195 6.41524 1.29296 6.31032C1.1915 6.25385 1.06767 6.25471 0.96687 6.31251C0.866004 6.37031 0.802764 6.47662 0.800109 6.59281C0.799645 6.61239 0.799645 6.63197 0.799645 6.65181C0.799645 8.24012 1.65449 9.6701 2.96143 10.4495C2.84915 10.4383 2.73694 10.422 2.62546 10.4007C2.51052 10.3788 2.39234 10.419 2.31483 10.5067C2.23719 10.5943 2.21151 10.7164 2.24727 10.8279C2.73103 12.3382 3.97653 13.4491 5.48223 13.7878C4.23341 14.57 2.80529 14.9797 1.3061 14.9797C0.993281 14.9797 0.678672 14.9613 0.370764 14.9249C0.217806 14.9067 0.0715495 14.997 0.0194574 15.1425C-0.0326348 15.288 0.0225763 15.4503 0.152707 15.5337C2.07866 16.7686 4.30561 17.4213 6.59269 17.4213C11.0888 17.4213 13.9014 15.3011 15.4692 13.5225C17.4241 11.3047 18.5453 8.36912 18.5453 5.46862C18.5453 5.34745 18.5435 5.22508 18.5398 5.10311C19.3111 4.522 19.9751 3.81872 20.5155 3.0104C20.5976 2.88764 20.5887 2.72539 20.4936 2.61238C20.3986 2.4993 20.2404 2.46274 20.1052 2.52259Z" fill="white"/>
</svg>
